<?xml version="1.0" encoding="iso-8859-1"?>
<!-- Uploaded to: SVG Repo, www.svgrepo.com, Generator: SVG Repo Mixer Tools -->
<svg height="800px" width="800px" version="1.1" id="Layer_1" xmlns="http://www.w3.org/2000/svg" xmlns:xlink="http://www.w3.org/1999/xlink" 
	 viewBox="0 0 511.978 511.978" xml:space="preserve">
<path style="fill:#E6E9ED;" d="M450.044,57.043c-2.031-2.359-4.969-3.719-8.078-3.719H70.012c-3.102,0-6.054,1.359-8.078,3.719
	C21.99,103.416,0,162.71,0,223.989c0,50.357,14.608,99.089,42.256,140.932c26.937,40.779,64.693,72.872,109.175,92.794
	c1.367,0.609,2.859,0.938,4.359,0.938h200.398c1.5,0,2.984-0.328,4.359-0.938c44.482-19.922,82.246-52.015,109.183-92.794
	c27.64-41.843,42.248-90.574,42.248-140.932C511.978,162.71,489.979,103.416,450.044,57.043z"/>
<path style="fill:#5D9CEC;" d="M469.324,127.993l-21.343,10.672l-21.343-10.672l-21.312,10.672l-21.344-10.672l-21.342,10.672
	l-21.312-10.672l-21.342,10.672l-21.343-10.672l-21.312,10.672l-21.342-10.672l-21.335,10.672l-21.327-10.672l-21.335,10.672
	l-21.335-10.672l-21.327,10.672l-21.335-10.672l-21.335,10.672l-21.328-10.672l-21.334,10.672l-23.164-10.672l-19.499,10.672h-6.688
	C5.039,165.851,0,194.694,0,223.989c0,50.357,14.608,99.089,42.256,140.932c26.937,40.779,64.693,72.872,109.175,92.794
	c1.367,0.609,2.859,0.938,4.359,0.938h200.398c1.5,0,2.984-0.328,4.359-0.938c44.482-19.922,82.246-52.015,109.183-92.794
	c27.64-41.843,42.248-90.574,42.248-140.932c0-29.295-5.031-58.123-14.655-85.324h-6.688L469.324,127.993z"/>
<path style="fill:#E9573F;" d="M220.858,227.129l-21.32-21.312c-4.164-4.171-10.914-4.171-15.085-0.016
	c-4.164,4.172-4.164,10.922,0,15.093l13.781,13.78l-13.781,13.766c-4.164,4.172-4.164,10.922,0,15.093
	c2.086,2.078,4.812,3.125,7.547,3.125c2.726,0,5.46-1.047,7.539-3.125l21.32-21.327C225.021,238.05,225.021,231.301,220.858,227.129
	z"/>
<g>
	<path style="fill:#A0D468;" d="M415.983,415.981c-4.469,0-8.625-2.828-10.125-7.297c-0.625-1.875-15.125-46.561,0-92.058
		c12.844-38.624,0.125-78.232,0-78.623c-1.844-5.593,1.188-11.625,6.781-13.468c5.594-1.844,11.609,1.172,13.468,6.75
		c0.625,1.89,15.124,46.561,0,92.058c-12.843,38.624-0.125,78.232,0,78.623c1.844,5.593-1.187,11.624-6.78,13.468
		C418.218,415.809,417.077,415.981,415.983,415.981z"/>
	<path style="fill:#A0D468;" d="M95.995,415.981c-1.117,0-2.25-0.172-3.367-0.547c-5.586-1.859-8.609-7.891-6.758-13.468
		c0.188-0.594,12.812-40.093,0-78.623c-15.132-45.497-0.625-90.168,0-92.058c1.859-5.593,7.898-8.609,13.492-6.75
		c5.586,1.859,8.617,7.89,6.758,13.483c-0.125,0.375-12.843,39.983,0,78.607c15.132,45.497,0.625,90.183,0,92.058
		C104.628,413.153,100.464,415.981,95.995,415.981z"/>
	<path style="fill:#A0D468;" d="M138.666,415.981c-1.078,0-2.171-0.156-3.25-0.5c-5.602-1.797-8.695-7.781-6.93-13.374
		c0.141-0.438,5.609-18.672,0.016-36.218c-7.757-24.297-0.32-48.138,0-49.153c1.789-5.609,7.789-8.703,13.406-6.906
		c5.609,1.781,8.703,7.781,6.914,13.404c-0.047,0.141-5.641,18.515,0,36.171c7.757,24.296,0.32,48.154,0,49.154
		C147.377,413.091,143.181,415.981,138.666,415.981z"/>
	<path style="fill:#A0D468;" d="M373.328,415.997c-4.531,0-8.718-2.906-10.171-7.438c-0.328-1-7.766-24.858,0-49.154
		c5.64-17.656,0.047-36.03-0.016-36.218c-1.781-5.607,1.312-11.592,6.937-13.373c5.594-1.797,11.609,1.312,13.405,6.922
		c0.312,1.016,7.75,24.856,0,49.153c-5.64,17.671-0.062,36.03,0,36.218c1.797,5.608-1.312,11.593-6.905,13.39
		C375.484,415.841,374.39,415.997,373.328,415.997z"/>
</g>
<path style="fill:#965353;" d="M287.988,330.656H223.99c-5.89,0-10.663,4.766-10.663,10.655v63.998
	c0,5.891,4.773,10.672,10.663,10.672h63.998c5.891,0,10.656-4.781,10.656-10.672v-63.998
	C298.644,335.422,293.879,330.656,287.988,330.656z"/>
<polygon style="fill:#FFCE54;" points="213.327,351.983 213.327,373.311 298.644,373.311 298.644,351.983 266.653,351.983 
	266.653,330.656 245.325,330.656 245.325,351.983 "/>
<path style="fill:#4A89DC;" d="M21.335,149.32c1.789,0,3.546-0.438,5.117-1.297l14.789-8.093l18.296,8.421
	c2.938,1.344,6.335,1.297,9.234-0.156l16.562-8.281l16.562,8.281c3,1.5,6.531,1.5,9.539,0l16.562-8.281l16.562,8.281
	c3,1.5,6.539,1.5,9.538,0l16.562-8.281l16.562,8.281c3.008,1.5,6.539,1.5,9.546,0l16.562-8.281l16.562,8.281
	c3,1.5,6.531,1.5,9.539,0l16.56-8.281l16.562,8.281c3,1.5,6.531,1.5,9.531,0l16.562-8.281l16.562,8.281c3.016,1.5,6.547,1.5,9.562,0
	l16.562-8.281l16.562,8.281c3,1.5,6.531,1.5,9.531,0l16.561-8.281l16.562,8.281c3,1.5,6.531,1.5,9.531,0l16.562-8.281l16.562,8.281
	c3.016,1.5,6.547,1.5,9.562,0l16.562-8.281l16.562,8.281c1.469,0.75,3.094,1.125,4.75,1.125l10.202,0.031
	c-2.203-7.234-4.718-14.358-7.546-21.358h-0.125l-19.093-9.547c-3-1.5-6.531-1.5-9.531,0l-16.562,8.281l-16.562-8.281
	c-3-1.5-6.53-1.5-9.53,0l-16.562,8.281l-16.562-8.281c-3.016-1.5-6.547-1.5-9.562,0l-16.562,8.281l-16.562-8.281
	c-3-1.5-6.531-1.5-9.531,0l-16.561,8.281l-16.562-8.281c-3-1.5-6.531-1.5-9.531,0l-16.562,8.281l-16.569-8.281
	c-3.008-1.5-6.539-1.5-9.546,0l-16.562,8.281l-16.562-8.281c-3-1.5-6.539-1.5-9.539,0l-16.562,8.281l-16.562-8.281
	c-3.008-1.5-6.539-1.5-9.539,0l-16.561,8.281l-16.562-8.281c-3.008-1.5-6.539-1.5-9.547,0l-16.562,8.281l-16.562-8.281
	c-3-1.5-6.539-1.5-9.539,0l-16.749,8.391l-18.515-8.531c-3.07-1.406-6.625-1.296-9.585,0.328l-16.992,9.297
	c-2.844,7.016-5.367,14.156-7.578,21.39h10.195V149.32z"/>
<path style="fill:#FC6E51;" d="M266.645,266.675c-15.57,0-30.366-2.5-41.671-7.015c-19.42-7.766-22.327-19-22.327-24.984
	c0-6,2.906-17.217,22.327-24.999c11.305-4.516,26.101-7,41.671-7c15.562,0,30.374,2.484,41.687,7
	c19.404,7.781,22.31,18.999,22.31,24.999c0,5.984-2.905,17.219-22.31,24.984C297.019,264.175,282.207,266.675,266.645,266.675z"/>
<path style="fill:#FFCE54;" d="M360.548,457.715c33.029-14.797,62.326-36.296,86.262-63.061H65.169
	c23.937,26.765,53.24,48.264,86.262,63.061c1.367,0.609,2.859,0.938,4.359,0.938h200.398
	C357.688,458.652,359.173,458.324,360.548,457.715z"/>
<g>
	<path style="opacity:0.2;fill:#FFFFFF;enable-background:new    ;" d="M450.044,57.043c-2.031-2.359-4.969-3.719-8.078-3.719
		h-21.327c3.094,0,6.046,1.359,8.077,3.719c39.936,46.373,61.919,105.667,61.919,166.946c0,50.357-14.593,99.089-42.248,140.932
		c-26.936,40.779-64.686,72.872-109.184,92.794c-1.359,0.609-2.844,0.938-4.344,0.938h21.328c1.5,0,2.984-0.328,4.359-0.938
		c44.482-19.922,82.246-52.015,109.183-92.794c27.64-41.843,42.248-90.574,42.248-140.932
		C511.978,162.71,489.979,103.416,450.044,57.043z"/>
	<path style="opacity:0.2;fill:#FFFFFF;enable-background:new    ;" d="M61.935,57.043c2.023-2.359,4.976-3.719,8.078-3.719h21.335
		c-3.102,0-6.055,1.359-8.086,3.719C43.326,103.416,21.335,162.71,21.335,223.989c0,50.357,14.609,99.089,42.249,140.932
		c26.944,40.779,64.692,72.872,109.183,92.794c1.367,0.609,2.852,0.938,4.359,0.938h-21.335c-1.5,0-2.992-0.328-4.359-0.938
		c-44.482-19.922-82.238-52.015-109.175-92.794C14.608,323.078,0,274.346,0,223.989C0,162.71,21.99,103.416,61.935,57.043z"/>
</g>
<g>
	<path style="fill:#F6BB42;" d="M373.328,415.981c0,5.891-4.781,10.672-10.687,10.672c-5.875,0-10.656-4.781-10.656-10.672
		s4.781-10.672,10.656-10.672C368.547,405.309,373.328,410.091,373.328,415.981z"/>
	<path style="fill:#F6BB42;" d="M351.985,437.308c0,5.891-4.781,10.672-10.656,10.672c-5.906,0-10.688-4.781-10.688-10.672
		s4.781-10.655,10.688-10.655C347.204,426.653,351.985,431.418,351.985,437.308z"/>
	<path style="fill:#F6BB42;" d="M330.641,415.981c0,5.891-4.765,10.672-10.654,10.672c-5.891,0-10.655-4.781-10.655-10.672
		s4.765-10.672,10.655-10.672S330.641,410.091,330.641,415.981z"/>
	<path style="fill:#F6BB42;" d="M309.332,437.308c0,5.891-4.781,10.672-10.688,10.672c-5.875,0-10.656-4.781-10.656-10.672
		s4.781-10.655,10.656-10.655C304.551,426.653,309.332,431.418,309.332,437.308z"/>
	<path style="fill:#F6BB42;" d="M287.988,415.981c0,5.891-4.781,10.672-10.656,10.672c-5.898,0-10.679-4.781-10.679-10.672
		s4.78-10.672,10.679-10.672C283.207,405.309,287.988,410.091,287.988,415.981z"/>
	<path style="fill:#F6BB42;" d="M266.653,437.308c0,5.891-4.773,10.672-10.664,10.672c-5.89,0-10.664-4.781-10.664-10.672
		s4.773-10.655,10.664-10.655S266.653,431.418,266.653,437.308z"/>
	<path style="fill:#F6BB42;" d="M245.325,415.981c0,5.891-4.781,10.672-10.671,10.672c-5.891,0-10.664-4.781-10.664-10.672
		s4.773-10.672,10.664-10.672C240.544,405.309,245.325,410.091,245.325,415.981z"/>
	<path style="fill:#F6BB42;" d="M223.99,437.308c0,5.891-4.772,10.672-10.663,10.672c-5.89,0-10.671-4.781-10.671-10.672
		s4.781-10.655,10.671-10.655C219.218,426.653,223.99,431.418,223.99,437.308z"/>
	<path style="fill:#F6BB42;" d="M202.656,415.981c0,5.891-4.773,10.672-10.664,10.672s-10.664-4.781-10.664-10.672
		s4.773-10.672,10.664-10.672C197.882,405.309,202.656,410.091,202.656,415.981z"/>
	<path style="fill:#F6BB42;" d="M181.328,437.308c0,5.891-4.781,10.672-10.671,10.672s-10.664-4.781-10.664-10.672
		s4.773-10.655,10.664-10.655C176.547,426.653,181.328,431.418,181.328,437.308z"/>
	<path style="fill:#F6BB42;" d="M159.993,415.981c0,5.891-4.773,10.672-10.663,10.672c-5.891,0-10.672-4.781-10.672-10.672
		s4.781-10.672,10.672-10.672C155.219,405.309,159.993,410.091,159.993,415.981z"/>
</g>
</svg>